<svg xmlns="http://www.w3.org/2000/svg" xmlns:xlink="http://www.w3.org/1999/xlink" width="500" zoomAndPan="magnify" viewBox="0 0 375 374.999991" height="500" preserveAspectRatio="xMidYMid meet" version="1.0"><defs><clipPath id="94133689f5"><path d="M 187.5 0 C 83.945312 0 0 83.945312 0 187.5 C 0 291.054688 83.945312 375 187.5 375 C 291.054688 375 375 291.054688 375 187.5 C 375 83.945312 291.054688 0 187.5 0 Z M 187.5 0 " clip-rule="nonzero"/></clipPath><clipPath id="3bf9a39f45"><path d="M 110.164062 106.019531 L 179.722656 106.019531 L 179.722656 142.585938 L 110.164062 142.585938 Z M 110.164062 106.019531 " clip-rule="nonzero"/></clipPath><clipPath id="1aa98ff6e4"><path d="M 120.289062 142.585938 C 118.976562 142.585938 117.664062 142.3125 116.351562 141.765625 C 111.203125 139.574219 108.796875 133.660156 110.988281 128.519531 C 116.734375 114.832031 130.03125 106.019531 144.863281 106.019531 C 159.703125 106.019531 173 114.832031 178.804688 128.519531 C 180.992188 133.660156 178.585938 139.628906 173.4375 141.765625 C 168.292969 143.953125 162.328125 141.542969 160.191406 136.398438 C 157.566406 130.265625 151.546875 126.273438 144.863281 126.273438 C 138.1875 126.273438 132.222656 130.265625 129.597656 136.398438 C 128.007812 140.230469 124.234375 142.585938 120.289062 142.585938 Z M 120.289062 142.585938 " clip-rule="nonzero"/></clipPath><clipPath id="c55d0feef9"><path d="M 195.269531 106.019531 L 264.882812 106.019531 L 264.882812 142.613281 L 195.269531 142.613281 Z M 195.269531 106.019531 " clip-rule="nonzero"/></clipPath><clipPath id="9004120243"><path d="M 254.746094 106.019531 C 256.0625 106.019531 257.378906 106.289062 258.695312 106.839844 C 263.84375 109.03125 266.253906 114.945312 264.0625 120.097656 C 258.308594 133.792969 245 142.613281 230.152344 142.613281 C 215.304688 142.613281 201.996094 133.792969 196.1875 120.097656 C 193.996094 114.945312 196.40625 108.972656 201.554688 106.839844 C 206.703125 104.648438 212.675781 107.058594 214.816406 112.207031 C 217.441406 118.34375 223.46875 122.339844 230.152344 122.339844 C 236.832031 122.339844 242.804688 118.34375 245.433594 112.207031 C 247.023438 108.371094 250.804688 106.019531 254.746094 106.019531 Z M 254.746094 106.019531 " clip-rule="nonzero"/></clipPath><clipPath id="dd2ddb4fcf"><path d="M 109.707031 206.824219 L 264.890625 206.824219 L 264.890625 287.707031 L 109.707031 287.707031 Z M 109.707031 206.824219 " clip-rule="nonzero"/></clipPath></defs><g clip-path="url(#94133689f5)"><rect x="-37.5" width="450" fill="#ffacdf" y="-37.499999" height="449.999989" fill-opacity="1"/></g><rect x="-37.5" width="450" fill="#ffffff" y="-37.499999" height="449.999989" fill-opacity="1"/><rect x="-37.5" width="450" fill="#ffacdf" y="-37.499999" height="449.999989" fill-opacity="1"/><g clip-path="url(#3bf9a39f45)"><g clip-path="url(#1aa98ff6e4)"><path fill="#050606" d="M 110.164062 106.019531 L 179.578125 106.019531 L 179.578125 142.585938 L 110.164062 142.585938 Z M 110.164062 106.019531 " fill-opacity="1" fill-rule="nonzero"/></g></g><g clip-path="url(#c55d0feef9)"><g clip-path="url(#9004120243)"><path fill="#050606" d="M 195.410156 106.019531 L 264.882812 106.019531 L 264.882812 142.613281 L 195.410156 142.613281 Z M 195.410156 106.019531 " fill-opacity="1" fill-rule="nonzero"/></g></g><g clip-path="url(#dd2ddb4fcf)"><path fill="#000000" d="M 112.886719 206.816406 L 261.703125 206.816406 C 262.132812 206.808594 262.554688 206.890625 262.957031 207.054688 C 263.359375 207.21875 263.710938 207.453125 264.019531 207.761719 C 264.328125 208.070312 264.5625 208.421875 264.730469 208.824219 C 264.894531 209.226562 264.972656 209.648438 264.96875 210.078125 C 264.96875 212.625 264.84375 215.164062 264.59375 217.691406 C 264.34375 220.222656 263.96875 222.734375 263.476562 225.230469 C 262.976562 227.722656 262.359375 230.1875 261.617188 232.621094 C 260.878906 235.054688 260.027344 237.445312 259.050781 239.796875 C 258.078125 242.144531 256.988281 244.441406 255.789062 246.683594 C 254.589844 248.925781 253.285156 251.101562 251.871094 253.21875 C 250.460938 255.328125 248.945312 257.371094 247.332031 259.335938 C 245.71875 261.300781 244.007812 263.1875 242.210938 264.984375 C 240.414062 266.78125 238.53125 268.488281 236.5625 270.097656 C 234.597656 271.714844 232.554688 273.222656 230.445312 274.640625 C 228.328125 276.050781 226.148438 277.359375 223.90625 278.554688 C 221.664062 279.753906 219.363281 280.839844 217.019531 281.808594 C 214.667969 282.785156 212.277344 283.640625 209.84375 284.378906 C 207.40625 285.117188 204.945312 285.734375 202.449219 286.230469 C 199.953125 286.726562 197.441406 287.101562 194.914062 287.351562 C 192.378906 287.59375 189.84375 287.722656 187.300781 287.722656 C 184.757812 287.722656 182.21875 287.59375 179.6875 287.351562 C 177.15625 287.101562 174.640625 286.726562 172.148438 286.230469 C 169.65625 285.734375 167.191406 285.117188 164.757812 284.378906 C 162.324219 283.640625 159.933594 282.785156 157.582031 281.808594 C 155.230469 280.839844 152.9375 279.753906 150.695312 278.554688 C 148.449219 277.359375 146.269531 276.050781 144.15625 274.640625 C 142.042969 273.222656 140 271.714844 138.035156 270.097656 C 136.066406 268.488281 134.1875 266.78125 132.386719 264.984375 C 130.585938 263.1875 128.882812 261.300781 127.269531 259.335938 C 125.652344 257.371094 124.140625 255.328125 122.730469 253.21875 C 121.3125 251.101562 120.003906 248.925781 118.808594 246.683594 C 117.609375 244.441406 116.523438 242.144531 115.546875 239.796875 C 114.574219 237.445312 113.714844 235.054688 112.980469 232.621094 C 112.242188 230.1875 111.625 227.722656 111.125 225.230469 C 110.628906 222.734375 110.253906 220.222656 110.003906 217.691406 C 109.753906 215.164062 109.628906 212.625 109.628906 210.078125 C 109.625 209.648438 109.703125 209.230469 109.871094 208.828125 C 110.035156 208.425781 110.273438 208.074219 110.574219 207.765625 C 110.878906 207.460938 111.238281 207.226562 111.632812 207.058594 C 112.035156 206.894531 112.453125 206.816406 112.886719 206.816406 Z M 112.886719 206.816406 " fill-opacity="1" fill-rule="nonzero"/></g></svg>