<svg xmlns="http://www.w3.org/2000/svg" xmlns:xlink="http://www.w3.org/1999/xlink" width="500" zoomAndPan="magnify" viewBox="0 0 375 374.999991" height="500" preserveAspectRatio="xMidYMid meet" version="1.0"><defs><clipPath id="aaa4578284"><path d="M 187.5 0 C 83.945312 0 0 83.945312 0 187.5 C 0 291.054688 83.945312 375 187.5 375 C 291.054688 375 375 291.054688 375 187.5 C 375 83.945312 291.054688 0 187.5 0 Z M 187.5 0 " clip-rule="nonzero"/></clipPath><clipPath id="c7f80f7b68"><path d="M 67.027344 70.902344 L 308.527344 70.902344 L 308.527344 299.652344 L 67.027344 299.652344 Z M 67.027344 70.902344 " clip-rule="nonzero"/></clipPath><clipPath id="5f342f02ce"><path d="M 109.433594 105.433594 L 177.773438 105.433594 L 177.773438 141.359375 L 109.433594 141.359375 Z M 109.433594 105.433594 " clip-rule="nonzero"/></clipPath><clipPath id="2bca7059ac"><path d="M 119.382812 141.359375 C 118.09375 141.359375 116.804688 141.089844 115.511719 140.550781 C 110.457031 138.398438 108.09375 132.589844 110.242188 127.535156 C 115.886719 114.089844 128.953125 105.433594 143.527344 105.433594 C 158.105469 105.433594 171.167969 114.089844 176.871094 127.535156 C 179.019531 132.589844 176.65625 138.453125 171.597656 140.550781 C 166.542969 142.699219 160.683594 140.332031 158.585938 135.28125 C 156.003906 129.253906 150.089844 125.332031 143.527344 125.332031 C 136.96875 125.332031 131.105469 129.253906 128.527344 135.28125 C 126.96875 139.042969 123.257812 141.359375 119.382812 141.359375 Z M 119.382812 141.359375 " clip-rule="nonzero"/></clipPath><clipPath id="5daccc25a0"><path d="M 193.046875 105.433594 L 261.4375 105.433594 L 261.4375 141.382812 L 193.046875 141.382812 Z M 193.046875 105.433594 " clip-rule="nonzero"/></clipPath><clipPath id="0bb48349da"><path d="M 251.480469 105.433594 C 252.773438 105.433594 254.066406 105.699219 255.359375 106.234375 C 260.417969 108.390625 262.785156 114.199219 260.632812 119.265625 C 254.980469 132.71875 241.902344 141.382812 227.316406 141.382812 C 212.730469 141.382812 199.65625 132.71875 193.945312 119.265625 C 191.796875 114.199219 194.164062 108.335938 199.222656 106.234375 C 204.28125 104.085938 210.144531 106.453125 212.25 111.511719 C 214.828125 117.539062 220.753906 121.46875 227.316406 121.46875 C 233.882812 121.46875 239.746094 117.539062 242.332031 111.511719 C 243.890625 107.742188 247.605469 105.433594 251.480469 105.433594 Z M 251.480469 105.433594 " clip-rule="nonzero"/></clipPath><clipPath id="f879fd8cc4"><path d="M 108.988281 204.46875 L 261.449219 204.46875 L 261.449219 283.933594 L 108.988281 283.933594 Z M 108.988281 204.46875 " clip-rule="nonzero"/></clipPath><clipPath id="719d249cc9"><path d="M 299.042969 140.03125 L 312.195312 140.03125 L 312.195312 209.085938 L 299.042969 209.085938 Z M 299.042969 140.03125 " clip-rule="nonzero"/></clipPath><clipPath id="7e9ae377b5"><path d="M 308.699219 168.300781 C 303.675781 185.324219 303.75 188.023438 303.976562 189.976562 C 304.125 191.175781 304.800781 192.976562 304.800781 192.976562 C 304.726562 192.976562 303.976562 191.398438 303.898438 190.050781 C 303.75 186.976562 306.300781 180.675781 306.898438 174.75 C 307.726562 166.875 305.398438 150.601562 307.273438 147.074219 C 307.875 145.949219 308.925781 145.351562 309.675781 145.425781 C 310.351562 145.5 311.101562 146.25 311.550781 147.601562 C 313.273438 153.148438 307.875 192 305.175781 197.324219 C 304.5 198.601562 303.824219 199.199219 303.148438 199.273438 C 302.476562 199.273438 301.648438 198.898438 301.125 197.925781 C 299.175781 194.324219 302.101562 174.824219 301.800781 164.773438 C 301.648438 156.449219 298.800781 144.976562 300.300781 141.824219 C 300.75 140.699219 301.800781 140.101562 302.550781 140.101562 C 303.226562 140.101562 303.898438 140.625 304.425781 141.601562 C 306.148438 144.976562 306.449219 158.324219 306.824219 167.773438 C 307.351562 179.175781 305.699219 200.699219 306.523438 205.273438 C 306.75 206.324219 307.425781 206.550781 307.273438 207.148438 C 307.125 207.75 306.148438 208.875 305.476562 209.023438 C 304.800781 209.101562 303.523438 208.273438 303.226562 207.75 C 302.925781 207.375 302.925781 206.851562 303.074219 206.398438 C 303.226562 205.875 303.824219 205.125 304.351562 204.898438 C 304.949219 204.675781 305.851562 204.75 306.375 205.125 C 306.824219 205.425781 307.273438 206.324219 307.273438 206.851562 C 307.273438 207.449219 306.898438 208.351562 306.375 208.648438 C 305.773438 209.023438 304.425781 209.023438 303.75 208.5 C 302.851562 207.75 302.550781 205.125 302.398438 203.101562 C 302.175781 200.699219 303 198.523438 303.148438 195.074219 C 303.523438 188.699219 303.601562 177 303.148438 168 C 302.699219 159.074219 298.875 144.375 300.449219 141.300781 C 300.898438 140.398438 301.875 140.023438 302.550781 140.101562 C 303.226562 140.175781 303.898438 140.625 304.425781 141.601562 C 306 144.675781 305.476562 156.449219 305.625 164.773438 C 305.851562 174.75 306.675781 193.199219 305.175781 197.324219 C 304.726562 198.449219 304.273438 199.050781 303.601562 199.199219 C 302.925781 199.351562 301.726562 199.050781 301.125 197.925781 C 298.574219 193.351562 304.199219 152.175781 307.273438 147.074219 C 308.023438 145.875 308.925781 145.351562 309.675781 145.425781 C 310.351562 145.5 311.101562 146.25 311.550781 147.601562 C 313.199219 152.175781 311.175781 175.949219 310.351562 183 C 310.050781 186 309.75 187.273438 309.074219 189.449219 C 308.398438 191.773438 307.5 195.226562 306.148438 196.425781 C 305.25 197.25 303.976562 197.550781 303 197.324219 C 302.023438 197.101562 301.050781 195.898438 300.449219 194.925781 C 299.851562 193.949219 299.550781 193.050781 299.324219 191.625 C 298.949219 189.226562 298.949219 185.398438 299.550781 181.800781 C 300.300781 177.226562 302.925781 168.824219 304.425781 166.574219 C 305.023438 165.75 305.476562 165.375 306.074219 165.148438 C 306.523438 165 307.199219 165.148438 307.648438 165.375 C 308.101562 165.675781 308.550781 166.199219 308.699219 166.648438 C 308.925781 167.101562 308.699219 168.300781 308.699219 168.300781 " clip-rule="nonzero"/></clipPath><clipPath id="e0671513ef"><path d="M 288.4375 162 L 326.917969 162 L 326.917969 262.585938 L 288.4375 262.585938 Z M 288.4375 162 " clip-rule="nonzero"/></clipPath><clipPath id="92eb8b1607"><path d="M 299.023438 227.625 C 301.574219 203.101562 301.648438 200.925781 301.425781 197.398438 C 301.199219 192.898438 299.550781 185.851562 299.398438 182.101562 C 299.324219 180.074219 299.175781 178.726562 299.625 177.226562 C 300.074219 175.726562 300.976562 174.148438 302.101562 173.023438 C 303.226562 171.824219 305.023438 170.925781 306.300781 170.398438 C 307.125 170.023438 307.726562 169.949219 308.699219 169.949219 C 310.050781 169.875 312.300781 170.324219 313.5 170.773438 C 314.398438 171.074219 314.925781 171.375 315.675781 171.976562 C 316.648438 172.875 318.074219 174.675781 318.75 175.800781 C 319.199219 176.625 319.273438 177 319.5 178.199219 C 320.101562 181.726562 319.949219 193.273438 319.726562 199.5 C 319.574219 204.375 319.5 207.074219 318.675781 212.476562 C 317.25 221.550781 316.648438 243.449219 310.351562 248.625 C 305.773438 252.375 293.476562 251.773438 291.074219 249.226562 C 289.425781 247.351562 291.523438 243.074219 292.273438 239.175781 C 293.476562 233.398438 296.476562 225.148438 298.199219 218.101562 C 299.851562 211.199219 301.273438 204.75 302.550781 197.476562 C 303.898438 189.148438 305.023438 174.976562 305.851562 170.925781 C 306.148438 169.648438 306.148438 169.351562 306.601562 168.449219 C 307.273438 167.25 308.476562 165.523438 309.75 164.476562 C 311.023438 163.425781 312.976562 162.75 314.324219 162.375 C 315.300781 162.148438 315.898438 162.074219 316.875 162.226562 C 318.226562 162.375 320.476562 163.050781 321.675781 163.726562 C 322.574219 164.175781 323.101562 164.550781 323.699219 165.226562 C 324.601562 166.273438 325.875 168.300781 326.324219 169.574219 C 326.699219 170.476562 326.773438 170.773438 326.851562 172.050781 C 327.074219 177.074219 323.925781 197.699219 323.625 208.050781 C 323.398438 215.925781 324.824219 224.851562 324.300781 228.75 C 324.074219 230.324219 323.773438 231.074219 323.25 232.050781 C 322.726562 233.101562 322.050781 234.074219 321.226562 234.898438 C 320.398438 235.726562 319.425781 236.398438 318.375 236.925781 C 317.398438 237.449219 316.199219 237.824219 315.074219 237.976562 C 313.949219 238.125 312.75 238.125 311.625 237.898438 C 310.5 237.675781 309.300781 237.226562 308.324219 236.699219 C 307.351562 236.101562 306.375 235.351562 305.625 234.523438 C 304.875 233.625 304.199219 232.648438 303.75 231.601562 C 303.300781 230.476562 303 229.351562 302.851562 228.148438 C 302.773438 227.023438 302.925781 225.824219 303.148438 224.699219 C 303.449219 223.574219 303.898438 222.449219 304.5 221.550781 C 305.175781 220.574219 306 219.675781 306.824219 218.925781 C 307.726562 218.175781 308.851562 217.574219 309.898438 217.199219 C 310.949219 216.824219 312.148438 216.601562 313.273438 216.523438 C 314.476562 216.523438 315.675781 216.675781 316.726562 217.050781 C 317.851562 217.351562 318.976562 217.875 319.875 218.550781 C 320.773438 219.226562 321.675781 220.125 322.351562 221.023438 C 323.023438 221.925781 323.550781 223.050781 323.925781 224.175781 C 324.226562 225.226562 324.375 226.425781 324.375 227.625 C 324.300781 228.75 324.074219 229.949219 323.699219 231 C 323.324219 232.050781 322.726562 233.175781 321.976562 234.074219 C 321.300781 234.898438 320.398438 235.726562 319.425781 236.398438 C 318.449219 237 317.324219 237.449219 316.199219 237.75 C 315.074219 238.050781 313.875 238.125 312.75 238.050781 C 311.625 237.976562 310.425781 237.675781 309.375 237.226562 C 308.324219 236.773438 307.273438 236.101562 306.449219 235.351562 C 305.550781 234.523438 304.800781 233.625 304.273438 232.574219 C 303.675781 231.601562 303.375 230.925781 303.074219 229.351562 C 302.25 225.300781 302.101562 215.625 302.324219 207.449219 C 302.699219 196.800781 304.875 175.875 305.851562 170.925781 C 306.148438 169.574219 306.148438 169.351562 306.601562 168.449219 C 307.273438 167.25 308.699219 165.375 309.75 164.476562 C 310.425781 163.800781 310.949219 163.5 311.925781 163.125 C 313.199219 162.675781 315.226562 162.148438 316.875 162.226562 C 318.523438 162.300781 320.324219 162.824219 321.675781 163.726562 C 323.101562 164.550781 324.523438 166.125 325.273438 167.25 C 325.875 168.074219 326.101562 168.601562 326.324219 169.574219 C 326.699219 170.925781 326.773438 172.199219 326.699219 174.601562 C 326.476562 180.75 324.449219 195.824219 322.199219 207.226562 C 319.726562 220.273438 315 239.550781 311.925781 248.550781 C 310.273438 253.199219 310.050781 256.574219 307.425781 258.824219 C 304.5 261.226562 297.824219 263.324219 294.675781 262.050781 C 291.675781 260.699219 289.351562 256.050781 288.675781 251.25 C 287.476562 242.851562 295.648438 223.425781 297.226562 214.949219 C 298.050781 210.523438 298.273438 208.949219 298.648438 204.675781 C 299.25 197.699219 298.125 182.324219 299.625 177.226562 C 300.226562 175.125 301.199219 174 302.101562 173.023438 C 302.699219 172.273438 303.226562 171.898438 304.050781 171.449219 C 305.175781 170.851562 307.125 170.023438 308.699219 169.949219 C 310.273438 169.800781 312.074219 170.101562 313.5 170.773438 C 315 171.375 316.425781 172.5 317.398438 173.699219 C 318.449219 174.976562 318.898438 176.25 319.5 178.199219 C 320.476562 181.273438 321.300781 186.824219 321.601562 190.875 C 321.824219 194.550781 321.675781 196.949219 321.375 201.300781 C 320.851562 208.875 320.324219 226.273438 317.773438 232.050781 C 316.574219 234.75 315.148438 236.25 313.273438 237.226562 C 311.398438 238.273438 308.550781 238.648438 306.449219 238.125 C 304.351562 237.675781 302.023438 236.023438 300.75 234.300781 C 299.550781 232.574219 299.023438 227.625 299.023438 227.625 " clip-rule="nonzero"/></clipPath><clipPath id="fad33f999b"><path d="M 50.019531 56.019531 L 328 56.019531 L 328 318.855469 L 50.019531 318.855469 Z M 50.019531 56.019531 " clip-rule="nonzero"/></clipPath><clipPath id="3074ea2475"><path d="M 326.699219 245.625 C 325.949219 263.550781 325.351562 266.773438 324.824219 270.375 C 324.300781 274.125 323.851562 277.875 322.949219 281.699219 C 322.050781 285.75 321.148438 290.398438 319.425781 293.925781 C 317.925781 297 316.648438 299.476562 313.726562 301.800781 C 309.523438 305.175781 299.773438 310.050781 294.601562 309.824219 C 291.074219 309.75 287.773438 307.800781 285.675781 305.324219 C 283.425781 302.625 281.699219 297.375 282.148438 293.851562 C 282.601562 290.550781 285.449219 287.25 288 284.773438 C 290.476562 282.375 293.550781 279.75 297.148438 279.074219 C 301.273438 278.324219 309.074219 279.148438 311.699219 282.074219 C 314.25 285 313.875 292.273438 312.824219 296.25 C 312 299.625 309.449219 302.324219 307.125 304.800781 C 304.800781 307.273438 301.949219 309.449219 298.875 311.023438 C 295.648438 312.601562 292.351562 313.648438 288.226562 314.25 C 282.675781 315.148438 274.949219 314.101562 268.5 314.476562 C 262.125 314.925781 256.574219 316.351562 249.523438 316.648438 C 240.824219 317.101562 229.949219 315.976562 220.199219 315.976562 C 210.375 315.976562 198.226562 316.273438 190.875 316.875 C 186.300781 317.175781 184.125 317.925781 180 318.226562 C 174.375 318.523438 168.375 318.300781 160.351562 318.300781 C 147.449219 318.226562 120.976562 318 110.101562 317.550781 C 104.925781 317.324219 102.300781 317.324219 98.550781 316.800781 C 94.949219 316.273438 92.023438 315.75 88.050781 314.25 C 82.125 312 71.773438 306.898438 66.898438 303.074219 C 63.75 300.523438 61.5 298.273438 60.074219 295.273438 C 58.726562 292.351562 58.875 289.199219 58.425781 285.300781 C 57.824219 279.976562 57.300781 274.726562 57 266.101562 C 56.398438 248.324219 57.375 202.726562 57.074219 184.800781 C 56.925781 175.949219 57 172.351562 56.398438 165 C 55.5 155.699219 52.800781 143.023438 51.75 133.726562 C 50.851562 126.226562 49.949219 121.050781 50.023438 113.476562 C 50.101562 103.800781 51.449219 88.648438 53.476562 80.324219 C 54.824219 75.074219 56.25 71.398438 58.574219 67.875 C 60.75 64.574219 63.523438 61.273438 66.601562 59.476562 C 69.523438 57.75 72.523438 57.375 76.5 56.851562 C 81.976562 56.175781 87.976562 56.625 96.75 56.773438 C 112.800781 57 149.023438 58.050781 165.226562 59.101562 C 174.226562 59.699219 176.324219 60.675781 186 61.125 C 208.199219 62.101562 279.523438 56.925781 296.175781 60.300781 C 301.351562 61.351562 302.925781 62.476562 305.925781 64.574219 C 309.226562 66.824219 312.375 70.648438 314.925781 73.875 C 317.175781 76.726562 319.273438 79.5 320.476562 82.648438 C 321.675781 85.726562 321.976562 89.324219 322.125 92.625 C 322.273438 95.773438 321.898438 98.625 321.449219 102 C 320.925781 106.125 319.199219 111.226562 318.75 115.5 C 318.375 119.25 318.226562 122.851562 318.675781 126.226562 C 319.050781 129.449219 319.949219 132.300781 321 135.449219 C 322.125 138.824219 324.226562 142.273438 325.351562 145.726562 C 326.476562 148.949219 327.601562 151.949219 327.824219 155.476562 C 328.050781 159.675781 325.125 168.601562 325.949219 169.199219 C 326.175781 169.425781 326.925781 168.523438 327.074219 168.675781 C 327.449219 168.898438 326.773438 171.148438 326.324219 172.273438 C 325.875 173.398438 325.273438 174.523438 324.449219 175.425781 C 323.699219 176.398438 322.726562 177.226562 321.675781 177.824219 C 320.625 178.5 319.425781 178.949219 318.226562 179.25 C 317.101562 179.476562 315.75 179.550781 314.550781 179.476562 C 313.351562 179.324219 312.148438 179.023438 311.023438 178.5 C 309.898438 177.976562 308.851562 177.300781 307.949219 176.476562 C 307.050781 175.648438 306.300781 174.601562 305.699219 173.550781 C 305.101562 172.5 304.726562 171.226562 304.5 170.023438 C 304.273438 168.898438 304.273438 167.550781 304.425781 166.351562 C 304.648438 165.148438 305.023438 163.949219 305.625 162.898438 C 306.148438 161.773438 306.976562 160.726562 307.800781 159.898438 C 308.699219 159.074219 309.75 158.324219 310.875 157.800781 C 311.925781 157.273438 313.199219 156.976562 314.398438 156.824219 C 315.601562 156.675781 316.875 156.75 318.074219 156.976562 C 319.273438 157.199219 320.476562 157.726562 321.523438 158.324219 C 322.574219 158.925781 323.550781 159.75 324.375 160.648438 C 325.125 161.625 325.800781 162.675781 326.25 163.800781 C 326.699219 164.925781 327 166.199219 327.074219 167.398438 C 327.148438 168.601562 327.074219 169.949219 326.699219 171.074219 C 326.398438 172.273438 325.875 173.476562 325.199219 174.449219 C 324.523438 175.425781 323.625 176.398438 322.726562 177.148438 C 321.75 177.898438 320.625 178.5 319.425781 178.875 C 318.300781 179.324219 317.023438 179.550781 315.824219 179.550781 C 314.625 179.550781 313.351562 179.324219 312.148438 178.949219 C 311.023438 178.574219 309.898438 177.976562 308.925781 177.226562 C 307.949219 176.550781 307.050781 175.574219 306.375 174.601562 C 305.625 173.625 305.101562 172.726562 304.800781 171.226562 C 304.199219 168.75 305.625 164.925781 305.023438 160.574219 C 304.125 153.300781 298.050781 139.726562 296.699219 132.148438 C 295.875 127.273438 295.726562 124.425781 295.875 119.851562 C 296.101562 113.925781 298.351562 105.375 298.800781 99.601562 C 299.101562 95.324219 300.523438 91.273438 298.949219 88.425781 C 297.300781 85.648438 294.300781 84.300781 288.898438 82.875 C 272.25 78.601562 205.800781 84.375 180.148438 83.324219 C 166.050781 82.800781 160.125 81.300781 147.523438 80.625 C 129.898438 79.726562 95.773438 76.273438 84.449219 79.5 C 79.726562 80.851562 77.398438 82.199219 75.375 85.425781 C 72.601562 89.773438 73.125 99.898438 72.75 105.523438 C 72.523438 109.574219 72.675781 112.574219 72.75 115.949219 C 72.824219 119.25 72.898438 122.25 73.273438 125.699219 C 73.726562 129.75 75.148438 134.476562 75.523438 138.75 C 75.824219 142.648438 75 146.175781 75.523438 150.226562 C 76.050781 154.875 78.375 159.675781 79.125 165 C 79.949219 171.074219 79.648438 175.949219 79.800781 184.800781 C 80.101562 202.800781 78.75 252.300781 79.273438 266.699219 C 79.5 271.875 79.648438 273.675781 80.25 277.199219 C 80.773438 281.023438 80.550781 286.199219 82.726562 288.824219 C 84.824219 291.300781 89.324219 292.050781 92.625 292.949219 C 95.773438 293.851562 97.425781 294.074219 102 294.449219 C 114.675781 295.5 157.050781 296.023438 173.699219 295.574219 C 182.699219 295.351562 187.648438 294.375 194.324219 294.148438 C 200.851562 293.925781 208.050781 294.523438 213.375 294.226562 C 217.199219 293.925781 219.375 292.949219 223.273438 292.800781 C 228.75 292.648438 237.523438 294.148438 243 294.300781 C 246.898438 294.375 249.75 294.300781 253.050781 294 C 256.351562 293.625 258.675781 292.648438 262.875 292.273438 C 270.148438 291.675781 286.273438 289.574219 293.101562 292.351562 C 297.601562 294.148438 301.648438 301.800781 302.324219 301.351562 C 303.074219 300.824219 296.925781 292.800781 297.226562 289.199219 C 297.449219 286.199219 300.976562 284.101562 302.175781 281.101562 C 303.449219 277.875 303.75 274.800781 304.574219 270.375 C 305.851562 263.023438 306.449219 246 308.625 241.199219 C 309.523438 239.25 310.351562 238.574219 311.699219 237.75 C 313.351562 236.699219 316.199219 235.875 318.300781 236.101562 C 320.398438 236.398438 322.875 237.675781 324.300781 239.25 C 325.726562 240.824219 326.699219 245.625 326.699219 245.625 " clip-rule="nonzero"/></clipPath></defs><g clip-path="url(#aaa4578284)"><rect x="-37.5" width="450" fill="#ffacdf" y="-37.499999" height="449.999989" fill-opacity="1"/></g><g clip-path="url(#c7f80f7b68)"><rect x="-37.5" width="450" fill="#ffffff" y="-37.499999" height="449.999989" fill-opacity="1"/><rect x="-37.5" width="450" fill="#ffacdf" y="-37.499999" height="449.999989" fill-opacity="1"/></g><g clip-path="url(#5f342f02ce)"><g clip-path="url(#2bca7059ac)"><path fill="#050606" d="M 109.433594 105.433594 L 177.632812 105.433594 L 177.632812 141.359375 L 109.433594 141.359375 Z M 109.433594 105.433594 " fill-opacity="1" fill-rule="nonzero"/></g></g><g clip-path="url(#5daccc25a0)"><g clip-path="url(#0bb48349da)"><path fill="#050606" d="M 193.1875 105.433594 L 261.4375 105.433594 L 261.4375 141.382812 L 193.1875 141.382812 Z M 193.1875 105.433594 " fill-opacity="1" fill-rule="nonzero"/></g></g><g clip-path="url(#f879fd8cc4)"><path fill="#000000" d="M 112.109375 204.460938 L 258.3125 204.460938 C 258.738281 204.453125 259.152344 204.53125 259.546875 204.695312 C 259.941406 204.855469 260.289062 205.085938 260.589844 205.386719 C 260.894531 205.691406 261.125 206.039062 261.289062 206.433594 C 261.453125 206.828125 261.527344 207.242188 261.523438 207.664062 C 261.523438 210.167969 261.398438 212.660156 261.152344 215.144531 C 260.910156 217.632812 260.542969 220.101562 260.054688 222.550781 C 259.566406 225 258.960938 227.417969 258.234375 229.8125 C 257.507812 232.203125 256.667969 234.550781 255.710938 236.863281 C 254.753906 239.167969 253.683594 241.425781 252.503906 243.628906 C 251.328125 245.832031 250.046875 247.96875 248.65625 250.046875 C 247.269531 252.121094 245.78125 254.128906 244.195312 256.058594 C 242.609375 257.988281 240.933594 259.839844 239.164062 261.609375 C 237.398438 263.375 235.550781 265.046875 233.617188 266.632812 C 231.6875 268.21875 229.679688 269.703125 227.605469 271.09375 C 225.527344 272.480469 223.386719 273.765625 221.179688 274.9375 C 218.976562 276.117188 216.71875 277.1875 214.414062 278.140625 C 212.105469 279.097656 209.757812 279.9375 207.363281 280.660156 C 204.972656 281.386719 202.550781 281.992188 200.101562 282.480469 C 197.648438 282.96875 195.179688 283.335938 192.695312 283.582031 C 190.207031 283.824219 187.714844 283.949219 185.21875 283.949219 C 182.71875 283.949219 180.226562 283.824219 177.738281 283.582031 C 175.25 283.335938 172.78125 282.96875 170.332031 282.480469 C 167.882812 281.992188 165.460938 281.386719 163.070312 280.660156 C 160.679688 279.9375 158.328125 279.097656 156.019531 278.140625 C 153.710938 277.1875 151.457031 276.117188 149.253906 274.9375 C 147.050781 273.765625 144.90625 272.480469 142.828125 271.09375 C 140.753906 269.703125 138.746094 268.21875 136.816406 266.632812 C 134.882812 265.046875 133.035156 263.375 131.269531 261.609375 C 129.5 259.839844 127.824219 257.988281 126.238281 256.058594 C 124.652344 254.128906 123.164062 252.121094 121.777344 250.046875 C 120.386719 247.96875 119.101562 245.832031 117.929688 243.628906 C 116.75 241.425781 115.679688 239.167969 114.722656 236.863281 C 113.765625 234.550781 112.925781 232.203125 112.203125 229.8125 C 111.476562 227.417969 110.867188 225 110.378906 222.550781 C 109.890625 220.101562 109.523438 217.632812 109.277344 215.144531 C 109.03125 212.660156 108.910156 210.167969 108.910156 207.664062 C 108.90625 207.242188 108.984375 206.832031 109.144531 206.4375 C 109.308594 206.042969 109.539062 205.695312 109.839844 205.394531 C 110.136719 205.09375 110.488281 204.863281 110.878906 204.699219 C 111.273438 204.535156 111.683594 204.460938 112.109375 204.460938 Z M 112.109375 204.460938 " fill-opacity="1" fill-rule="nonzero"/></g><g clip-path="url(#719d249cc9)"><g clip-path="url(#7e9ae377b5)"><path fill="#ffacdf" d="M 296.324219 137.101562 L 314.625 137.101562 L 314.625 212.015625 L 296.324219 212.015625 Z M 296.324219 137.101562 " fill-opacity="1" fill-rule="nonzero"/></g></g><g clip-path="url(#e0671513ef)"><g clip-path="url(#92eb8b1607)"><path fill="#ffacdf" d="M 285.675781 159.226562 L 329.851562 159.226562 L 329.851562 265.003906 L 285.675781 265.003906 Z M 285.675781 159.226562 " fill-opacity="1" fill-rule="nonzero"/></g></g><g clip-path="url(#fad33f999b)"><g clip-path="url(#3074ea2475)"><path fill="#ffacdf" d="M 47.023438 53.773438 L 330.824219 53.773438 L 330.824219 321.101562 L 47.023438 321.101562 Z M 47.023438 53.773438 " fill-opacity="1" fill-rule="nonzero"/></g></g></svg>